<svg id="Group_18318" data-name="Group 18318" xmlns="http://www.w3.org/2000/svg" xmlns:xlink="http://www.w3.org/1999/xlink" width="180.672" height="57.944" viewBox="0 0 180.672 57.944">
  <defs>
    <clipPath id="clip-path">
      <rect id="Rectangle_26355" data-name="Rectangle 26355" width="180.672" height="57.944" fill="none"/>
    </clipPath>
  </defs>
  <g id="Group_18317" data-name="Group 18317" transform="translate(0 0)" clip-path="url(#clip-path)">
    <path id="Path_2799" data-name="Path 2799" d="M183.018,59.266a3.321,3.321,0,0,0,1.617.422,3.281,3.281,0,0,0,1.594-.422,3.052,3.052,0,0,0,1.207-1.183,3.189,3.189,0,0,0,.434-1.6,3.3,3.3,0,0,0-.434-1.641,3.03,3.03,0,0,0-1.207-1.2,3.281,3.281,0,0,0-1.594-.422,3.321,3.321,0,0,0-1.617.422,3.022,3.022,0,0,0-1.207,1.2,3.3,3.3,0,0,0-.434,1.641,3.189,3.189,0,0,0,.434,1.6,3.044,3.044,0,0,0,1.207,1.183" transform="translate(-65.998 -19.365)" fill="#519aec"/>
    <path id="Path_2800" data-name="Path 2800" d="M211.582,46.617a20.062,20.062,0,0,0-9.7-2.631V57.865l-7.265.022V43.962h-5.407l-.024,11.272a14.388,14.388,0,0,1-1.762,6.2,12.7,12.7,0,0,1-5.129,5.19,13.756,13.756,0,0,1-13.976,0,12.712,12.712,0,0,1-5.129-5.177,14.264,14.264,0,0,1-1.786-6.843h-5.406a19.793,19.793,0,0,0,2.486,9.51,17.713,17.713,0,0,0,7.12,7.193,19.209,19.209,0,0,0,19.407,0,17.713,17.713,0,0,0,7.12-7.193q.218-.411.411-.821h28.651a19.76,19.76,0,0,0-2.486-9.486,17.716,17.716,0,0,0-7.121-7.193m-4.538,10.814v-6.9a15.779,15.779,0,0,1,1.569.772,12.759,12.759,0,0,1,5.117,5.165q.265.483.483.966Z" transform="translate(-56.761 -15.996)" fill="#519aec"/>
    <path id="Path_2801" data-name="Path 2801" d="M267.256,11.368a6.52,6.52,0,0,1-3.307,1.472,7.083,7.083,0,0,1-3.356-.41,10.659,10.659,0,0,0-4.055-.8,13.356,13.356,0,0,0-1.376.073,9.717,9.717,0,0,0-5.117,2.148,15.908,15.908,0,0,0-1.545,1.4l3.862,1.617a6.757,6.757,0,0,1,3.331-1.448,6.578,6.578,0,0,1,3.307.41,11.013,11.013,0,0,0,5.455.712,9.636,9.636,0,0,0,5.117-2.136,15.78,15.78,0,0,0,1.521-1.448Z" transform="translate(-90.422 -4.136)" fill="#519aec"/>
    <path id="Path_2802" data-name="Path 2802" d="M263.034,55.357h5.431V22.143h-5.407Z" transform="translate(-95.71 -8.057)" fill="#519aec"/>
    <path id="Path_2803" data-name="Path 2803" d="M6.579,24.9C2.035,24.772,0,21.716,0,18.74V16.359C0,12.318,2.49,10,6.831,10l-.05-.051c.3.072,1.427.072,5.554.072,2.408,0,2.5,0,2.5-.6a12.033,12.033,0,0,0,0-1.7c-.015-3-1.593-3.618-3.956-3.618-2.053,0-7.527.331-10.043.5v-3.1C4.19.283,7.641.018,11.784,0h.09c5.862,0,8.476,2.326,8.476,7.543V24.609H16.017L14.261,21.12l-.516,1.02A11.516,11.516,0,0,1,6.739,24.9ZM8.1,13.42c-1.715.16-2.583,1.219-2.583,3.146V17.8c0,2.567,1.573,2.9,2.942,2.9a13.121,13.121,0,0,0,6.118-2.049l.264-.172V12.9Z" transform="translate(0 0)" fill="#221f1c"/>
    <path id="Path_2804" data-name="Path 2804" d="M45.431,24.9c-4.545-.123-6.579-3.18-6.579-6.155V16.359c0-4.041,2.49-6.359,6.831-6.359l-.05-.051c.3.072,1.427.072,5.554.072,2.408,0,2.5,0,2.5-.6a12.033,12.033,0,0,0,0-1.7c-.015-3-1.593-3.618-3.956-3.618-2.053,0-7.527.331-10.043.5v-3.1C43.042.283,46.493.018,50.636,0h.09C56.588,0,59.2,2.326,59.2,7.543V24.609H54.869l-1.755-3.487L52.6,22.139A11.519,11.519,0,0,1,45.591,24.9ZM46.948,13.42c-1.715.16-2.583,1.219-2.583,3.146V17.8c0,2.567,1.573,2.9,2.942,2.9a13.121,13.121,0,0,0,6.118-2.049l.264-.172V12.9Z" transform="translate(-14.137 0)" fill="#221f1c"/>
    <path id="Path_2805" data-name="Path 2805" d="M109.941,24.673V8.4c0-2.553-1.229-4.018-3.37-4.018A9.284,9.284,0,0,0,100.009,6.5l-.206.174s.026,1.664.026,1.784V24.673H94.316V8.4c0-2.553-1.236-4.018-3.391-4.018a9.019,9.019,0,0,0-6.312,2.288l-.227.174V24.673H78.873V.539H83.29l1.449,3.027.962-.691c2.005-1.448,3.736-2.7,7.137-2.7,2.924,0,5.069,1.049,6.041,2.954l.306.6.548-.4A14.447,14.447,0,0,1,108.484.176c4.625,0,6.97,2.8,6.97,8.326V24.673Z" transform="translate(-28.7 -0.064)" fill="#221f1c"/>
    <path id="Path_2806" data-name="Path 2806" d="M151.548,25.011c-5.8,0-7.757-3.135-7.757-12.424C143.791,2.2,146.405.448,154.262.448c7.2,0,10.137.781,10.137,8.638,0,3.982-2,5.757-6.471,5.757H149.3v.577c0,5.048,2.233,5.413,5.91,5.413h.852a51.471,51.471,0,0,0,7.857-.415v3.427c-3.482,1.166-8.616,1.166-12.376,1.166m3.1-20.621c-1.926,0-3.258.069-4.167.988-.865.873-1.206,2.4-1.179,5.261l.005.571H156.2a2.373,2.373,0,0,0,2.686-2.466c0-3.581-.753-4.355-4.236-4.355" transform="translate(-52.321 -0.163)" fill="#221f1c"/>
    <path id="Path_2807" data-name="Path 2807" d="M199.25,24.636V8.273c0-3.3-1.833-3.995-3.37-3.995a9.311,9.311,0,0,0-6.463,2.309l-.227.174V24.636h-5.513V.5h4.42l1.45,2.983.818-.59c2.01-1.45,3.909-2.821,7.426-2.821,4.691,0,6.971,2.717,6.971,8.3V24.636Z" transform="translate(-66.835 -0.027)" fill="#221f1c"/>
  </g>
</svg>
